<svg width="64" height="46" viewBox="0 0 64 46" fill="none" xmlns="http://www.w3.org/2000/svg">
    <path d="M9.6 19.4427C13.13 19.4427 16 16.5672 16 13.0305C16 9.49375 13.13 6.61827 9.6 6.61827C6.07 6.61827 3.2 9.49375 3.2 13.0305C3.2 16.5672 6.07 19.4427 9.6 19.4427ZM54.4 19.4427C57.93 19.4427 60.8 16.5672 60.8 13.0305C60.8 9.49375 57.93 6.61827 54.4 6.61827C50.87 6.61827 48 9.49375 48 13.0305C48 16.5672 50.87 19.4427 54.4 19.4427ZM57.6 22.6488H51.2C49.44 22.6488 47.85 23.3602 46.69 24.5124C50.72 26.7266 53.58 30.7242 54.2 35.4732H60.8C62.57 35.4732 64 34.0405 64 32.2671V29.061C64 25.5243 61.13 22.6488 57.6 22.6488ZM32 22.6488C38.19 22.6488 43.2 17.6292 43.2 11.4274C43.2 5.22562 38.19 0.206055 32 0.206055C25.81 0.206055 20.8 5.22562 20.8 11.4274C20.8 17.6292 25.81 22.6488 32 22.6488ZM39.68 25.8549H38.85C36.77 26.8568 34.46 27.458 32 27.458C29.54 27.458 27.24 26.8568 25.15 25.8549H24.32C17.96 25.8549 12.8 31.0248 12.8 37.3969V40.2824C12.8 42.9374 14.95 45.0916 17.6 45.0916H46.4C49.05 45.0916 51.2 42.9374 51.2 40.2824V37.3969C51.2 31.0248 46.04 25.8549 39.68 25.8549ZM17.31 24.5124C16.15 23.3602 14.56 22.6488 12.8 22.6488H6.4C2.87 22.6488 0 25.5243 0 29.061V32.2671C0 34.0405 1.43 35.4732 3.2 35.4732H9.79C10.42 30.7242 13.28 26.7266 17.31 24.5124Z" fill="#25af25"/>
    <defs>
    <linearGradient id="paint0_linear_790_2924" x1="0" y1="0.206055" x2="62.4026" y2="47.2122" gradientUnits="userSpaceOnUse">
    <stop stopColor="#32CD32"/>
    <stop offset="1" stopColor="#006400"/>
    </linearGradient>
    </defs>
</svg>