<svg width="24" height="24" viewBox="0 0 32 32" fill="none" xmlns="http://www.w3.org/2000/svg">
    <path d="M18.6667 12.4V16.3333H22.1733C22.4267 16.3333 22.6134 16.56 22.56 16.8133L22.0533 19.3467C22.0133 19.5333 21.8533 19.6667 21.6667 19.6667H18.6667V29.3333H14.6667V19.6667H12.4C12.1733 19.6667 12 19.4933 12 19.2667V16.7333C12 16.5067 12.1733 16.3333 12.4 16.3333H14.6667V12C14.6667 9.78667 16.4533 8 18.6667 8H22.2667C22.4933 8 22.6667 8.17332 22.6667 8.39998V11.6C22.6667 11.8267 22.4933 12 22.2667 12H19.0666C18.84 12 18.6667 12.1733 18.6667 12.4Z" stroke="#fff" stroke-width="1.5" stroke-miterlimit="10" stroke-linecap="round"/>
    <path d="M2.66675 17.1066V20C2.66675 26.6667 5.33341 29.3333 12.0001 29.3333H20.0001C26.6667 29.3333 29.3334 26.6667 29.3334 20V12C29.3334 5.33332 26.6667 2.66666 20.0001 2.66666H12.0001C5.33341 2.66666 2.66675 5.33332 2.66675 12" stroke="#fff" stroke-width="1.5" stroke-linecap="round" stroke-linejoin="round"/>
</svg>