<svg width="72" height="72" viewBox="0 0 72 72" fill="none" xmlns="http://www.w3.org/2000/svg">
<path d="M66 48.57C66 59.49 59.49 66 48.57 66H45C43.35 66 42 64.65 42 63V45.69C42 44.88 42.66 44.19 43.47 44.19L48.75 44.1C49.17 44.07 49.53 43.77 49.62 43.35L50.67 37.62C50.76 37.08 50.34 36.57 49.77 36.57L43.38 36.66C42.54 36.66 41.88 36 41.85 35.19L41.73 27.84C41.73 27.36 42.12 26.94 42.63 26.94L49.83 26.82C50.34 26.82 50.73 26.43 50.73 25.92L50.61 18.72C50.61 18.21 50.22 17.82 49.71 17.82L41.61 17.94C36.63 18.03 32.67 22.11 32.76 27.09L32.91 35.34C32.94 36.18 32.28 36.84 31.44 36.87L27.84 36.93C27.33 36.93 26.94 37.32 26.94 37.83L27.03 43.53C27.03 44.04 27.42 44.43 27.93 44.43L31.53 44.37C32.37 44.37 33.03 45.03 33.06 45.84L33.33 62.94C33.36 64.62 32.01 66 30.33 66H23.43C12.51 66 6 59.49 6 48.54V23.43C6 12.51 12.51 6 23.43 6H48.57C59.49 6 66 12.51 66 23.43V48.57Z" fill="white"/>
</svg>
