<svg width="72" height="72" viewBox="0 0 72 72" fill="none" xmlns="http://www.w3.org/2000/svg">
    <path d="M51 10.5H21C12 10.5 6 15 6 25.5V46.5C6 57 12 61.5 21 61.5H51C60 61.5 66 57 66 46.5V25.5C66 15 60 10.5 51 10.5ZM52.41 28.77L43.02 36.27C41.04 37.86 38.52 38.64 36 38.64C33.48 38.64 30.93 37.86 28.98 36.27L19.59 28.77C18.63 27.99 18.48 26.55 19.23 25.59C20.01 24.63 21.42 24.45 22.38 25.23L31.77 32.73C34.05 34.56 37.92 34.56 40.2 32.73L49.59 25.23C50.55 24.45 51.99 24.6 52.74 25.59C53.52 26.55 53.37 27.99 52.41 28.77Z" fill="white"/>
</svg>