<svg width="60" height="60" viewBox="0 0 60 60" fill="none" xmlns="http://www.w3.org/2000/svg">
    <path d="M30.0013 37.7562C28.4645 37.7576 26.962 37.3024 25.6843 36.4484C24.4067 35.5944 23.4115 34.3801 22.8251 32.9596C22.2387 31.5391 22.0875 29.9764 22.3907 28.4698C22.6939 26.9633 23.4379 25.5807 24.5281 24.4977C24.7337 24.2939 24.9775 24.1327 25.2454 24.0232C25.5133 23.9137 25.8002 23.858 26.0897 23.8594C26.3791 23.8608 26.6655 23.9191 26.9324 24.0311C27.1993 24.1432 27.4415 24.3067 27.6452 24.5123C27.8489 24.7179 28.0101 24.9617 28.1196 25.2296C28.2291 25.4975 28.2848 25.7844 28.2834 26.0739C28.2821 26.3633 28.2237 26.6496 28.1117 26.9165C27.9997 27.1834 27.8362 27.4256 27.6305 27.6294C27.3148 27.9381 27.0641 28.3069 26.8932 28.7141C26.7223 29.1212 26.6346 29.5585 26.6354 30.0001C26.5965 30.6952 26.776 31.3851 27.1488 31.9731C27.5216 32.5612 28.069 33.0178 28.7143 33.2792C29.3596 33.5405 30.0705 33.5935 30.7474 33.4306C31.4243 33.2677 32.0333 32.8971 32.4891 32.3708C32.9057 31.958 33.4684 31.7263 34.0549 31.7263C34.6414 31.7263 35.2042 31.958 35.6208 32.3708C36.0267 32.791 36.2536 33.3524 36.2536 33.9367C36.2536 34.5209 36.0267 35.0823 35.6208 35.5025C34.8811 36.2331 34.0031 36.8087 33.0382 37.1957C32.0732 37.5827 31.0408 37.7732 30.0013 37.7562Z" fill="#25af25"/>
    <path d="M60 30C60 37.9565 56.8393 45.5871 51.2132 51.2132C45.5871 56.8393 37.9565 60 30 60C22.0435 60 14.4129 56.8393 8.7868 51.2132C3.1607 45.5871 0 37.9565 0 30C0 22.0435 3.1607 14.4129 8.7868 8.7868C14.4129 3.1607 22.0435 0 30 0C30.5822 0 31.1405 0.231271 31.5522 0.642936C31.9639 1.0546 32.1951 1.61294 32.1951 2.19512V13.3171C32.1875 13.8969 31.9538 14.4508 31.5438 14.8609C31.1338 15.2709 30.5798 15.5046 30 15.5122C27.1336 15.4925 24.3281 16.3392 21.9512 17.9415C19.561 19.5256 17.6969 21.786 16.597 24.4342C15.497 27.0824 15.2111 29.9983 15.7756 32.8098C16.6937 36.1451 18.7637 39.0474 21.6183 41.0016C24.4729 42.9558 27.9275 43.8355 31.3691 43.4847C34.8106 43.1338 38.0166 41.5751 40.4182 39.0852C42.8198 36.5952 44.2616 33.3349 44.4878 29.8829C44.4839 29.5936 44.538 29.3064 44.6469 29.0383C44.7558 28.7702 44.9173 28.5266 45.122 28.322C45.3266 28.1173 45.5702 27.9558 45.8383 27.8469C46.1064 27.738 46.3936 27.6839 46.6829 27.6878H57.8049C58.1033 27.6874 58.3986 27.7478 58.6729 27.8654C58.9471 27.9829 59.1945 28.1552 59.4 28.3716C59.6054 28.588 59.7646 28.844 59.8677 29.124C59.9709 29.404 60.0159 29.702 60 30Z" fill="url(#paint1_linear_790_2925)"/>
    <path d="M58.9456 12.8196C58.8692 13.389 58.6362 13.926 58.2725 14.3708L51.9213 20.722C51.018 21.6289 49.9006 22.2933 48.6725 22.6537C47.952 22.875 47.2017 22.9836 46.4481 22.9757C45.932 23.0215 45.4129 23.0215 44.8969 22.9757L41.0042 22.2147L34.331 28.9172C33.9114 29.3162 33.3587 29.5456 32.7798 29.5611C32.1978 29.5605 31.6398 29.3289 31.2286 28.9172C31.0215 28.7154 30.8569 28.4741 30.7445 28.2077C30.6321 27.9413 30.5742 27.6551 30.5742 27.3659C30.5742 27.0768 30.6321 26.7906 30.7445 26.5241C30.8569 26.2577 31.0215 26.0165 31.2286 25.8147L37.931 19.083L37.1408 15.2196C36.9046 13.9743 36.9647 12.691 37.3164 11.4732C37.6768 10.2451 38.3412 9.1277 39.2481 8.22446L45.5408 1.93178C45.9732 1.53845 46.5134 1.2836 47.092 1.20007C47.6334 1.12163 48.1858 1.2137 48.6725 1.46349C49.1554 1.70914 49.5607 2.08403 49.8432 2.54642C50.129 3.06382 50.2515 3.65564 50.1944 4.24398L49.2578 10.8586L55.8432 9.95129C56.3944 9.89719 56.9492 10.0107 57.4348 10.2771C57.9205 10.5434 58.3144 10.9501 58.5652 11.444C58.8036 11.8641 58.9343 12.3367 58.9456 12.8196Z" fill="url(#paint2_linear_790_2925)"/>
    <defs>
    <linearGradient id="paint0_linear_790_2925" x1="22.2383" y1="23.8594" x2="38.9223" y2="32.748" gradientUnits="userSpaceOnUse">
    <stop stopColor="#32CD32"/>
    <stop offset="1" stopColor="#006400"/>
    </linearGradient>
    <linearGradient id="paint1_linear_790_2925" x1="0" y1="0" x2="71.6916" y2="37.8765" gradientUnits="userSpaceOnUse">
    <stop stopColor="#32CD32"/>
    <stop offset="1" stopColor="#006400"/>
    </linearGradient>
    <linearGradient id="paint2_linear_790_2925" x1="30.5742" y1="1.17285" x2="64.4818" y2="19.0756" gradientUnits="userSpaceOnUse">
    <stop stopColor="#32CD32"/>
    <stop offset="1" stopColor="#006400"/>
    </linearGradient>
    </defs>
</svg>