<svg width="62" height="62" viewBox="0 0 62 62" fill="none" xmlns="http://www.w3.org/2000/svg">
    <path d="M31.0005 0.280029C14.0309 0.280029 0.277344 14.0336 0.277344 31C0.276924 35.0348 1.07132 39.0301 2.61515 42.7578C4.15899 46.4855 6.42203 49.8726 9.27502 52.7255C12.128 55.5785 15.5151 57.8416 19.2428 59.3854C22.9705 60.9293 26.9658 61.7236 31.0005 61.7232C47.9637 61.7232 61.7205 47.9696 61.7205 31C61.7205 14.0336 47.9637 0.280029 31.0005 0.280029ZM33.8677 11.3712C36.8629 11.3712 37.7429 13.1088 37.7429 15.096C37.7429 17.576 35.7589 19.8704 32.3701 19.8704C29.5349 19.8704 28.1845 18.4464 28.2677 16.088C28.2677 14.1008 29.9285 11.3712 33.8677 11.3712ZM26.1941 49.4C24.1461 49.4 22.6517 48.1552 24.0821 42.6992L26.4277 33.0192C26.8341 31.4704 26.9013 30.8496 26.4277 30.8496C25.8165 30.8496 23.1573 31.9184 21.5893 32.9744L20.5685 31.3008C25.5445 27.144 31.2661 24.7056 33.7141 24.7056C35.7621 24.7056 36.1013 27.1248 35.0805 30.8496L32.3925 41.0256C31.9157 42.824 32.1205 43.4448 32.5973 43.4448C33.2117 43.4448 35.2213 42.7024 37.1989 41.144L38.3573 42.6992C33.5157 47.5376 28.2389 49.4 26.1941 49.4Z" fill="#25af25"/>
    <defs>
    <linearGradient id="paint0_linear_790_2832" x1="0.277344" y1="0.280029" x2="73.6912" y2="39.0644" gradientUnits="userSpaceOnUse">
    <stop stopColor="#32CD32"/>
    <stop offset="1" stopColor="#006400"/>
    </linearGradient>
    </defs>
</svg>