<svg width="64" height="64" viewBox="0 0 64 64" fill="none" xmlns="http://www.w3.org/2000/svg">
    <path d="M56.0013 21.3334C52.1346 21.3334 49.9746 25.1734 50.8546 28.0267L41.388 37.52C40.588 37.28 39.4146 37.28 38.6146 37.52L31.8146 30.72C32.7213 27.8667 30.5613 24 26.668 24C22.8013 24 20.6146 27.84 21.5213 30.72L9.3613 42.8534C6.50797 41.9734 2.66797 44.1334 2.66797 48C2.66797 50.9334 5.06797 53.3334 8.0013 53.3334C11.868 53.3334 14.028 49.4934 13.148 46.64L25.2813 34.48C26.0813 34.72 27.2546 34.72 28.0546 34.48L34.8546 41.28C33.948 44.1334 36.108 48 40.0013 48C43.868 48 46.0546 44.16 45.148 41.28L54.6413 31.8134C57.4946 32.6934 61.3346 30.5334 61.3346 26.6667C61.3346 23.7334 58.9346 21.3334 56.0013 21.3334Z" fill="#25af25"/>
    <path d="M40.0013 24L42.508 18.48L48.0013 16L42.508 13.52L40.0013 8L37.548 13.52L32.0013 16L37.548 18.48L40.0013 24ZM9.33463 29.3333L10.668 24L16.0013 22.6667L10.668 21.3333L9.33463 16L8.0013 21.3333L2.66797 22.6667L8.0013 24L9.33463 29.3333Z" fill="url(#paint1_linear_790_2898)"/>
    <defs>
    <linearGradient id="paint0_linear_790_2898" x1="2.66797" y1="21.3334" x2="48.9303" y2="66.1406" gradientUnits="userSpaceOnUse">
    <stop stopColor="#32CD32"/>
    <stop offset="1" stopColor="#006400"/>
    </linearGradient>
    <linearGradient id="paint1_linear_790_2898" x1="2.66797" y1="8" x2="33.32" y2="42.4109" gradientUnits="userSpaceOnUse">
    <stop stopColor="#32CD32"/>
    <stop offset="1" stopColor="#006400"/>
    </linearGradient>
    </defs>
</svg>