<svg width="72" height="72" viewBox="0 0 72 72" fill="none" xmlns="http://www.w3.org/2000/svg">
    <path d="M48.57 6H23.43C12.51 6 6 12.51 6 23.43V48.54C6 59.49 12.51 66 23.43 66H48.54C59.46 66 65.97 59.49 65.97 48.57V23.43C66 12.51 59.49 6 48.57 6ZM36 47.64C29.58 47.64 24.36 42.42 24.36 36C24.36 29.58 29.58 24.36 36 24.36C42.42 24.36 47.64 29.58 47.64 36C47.64 42.42 42.42 47.64 36 47.64ZM53.76 20.64C53.61 21 53.4 21.33 53.13 21.63C52.83 21.9 52.5 22.11 52.14 22.26C51.78 22.41 51.39 22.5 51 22.5C50.19 22.5 49.44 22.2 48.87 21.63C48.6 21.33 48.39 21 48.24 20.64C48.09 20.28 48 19.89 48 19.5C48 19.11 48.09 18.72 48.24 18.36C48.39 17.97 48.6 17.67 48.87 17.37C49.56 16.68 50.61 16.35 51.57 16.56C51.78 16.59 51.96 16.65 52.14 16.74C52.32 16.8 52.5 16.89 52.68 17.01C52.83 17.1 52.98 17.25 53.13 17.37C53.4 17.67 53.61 17.97 53.76 18.36C53.91 18.72 54 19.11 54 19.5C54 19.89 53.91 20.28 53.76 20.64Z" fill="white"/>
</svg>