<svg width="24" height="24" viewBox="0 0 28 28" fill="none" xmlns="http://www.w3.org/2000/svg">
    <path d="M7.33336 11.3333V20.6667M12.6667 15.3333V20.6667M12.6667 15.3333C12.6667 14.8081 12.7702 14.2879 12.9712 13.8026C13.1722 13.3173 13.4668 12.8763 13.8383 12.5049C14.2097 12.1335 14.6507 11.8388 15.136 11.6378C15.6213 11.4368 16.1414 11.3333 16.6667 11.3333C17.192 11.3333 17.7121 11.4368 18.1974 11.6378C18.6827 11.8388 19.1237 12.1335 19.4951 12.5049C19.8666 12.8763 20.1612 13.3173 20.3622 13.8026C20.5632 14.2879 20.6667 14.8081 20.6667 15.3333V20.6667M12.6667 15.3333V11.3333M7.34403 7.33334H7.33203" stroke="#fff" stroke-width="1.5" stroke-linecap="round" stroke-linejoin="round"/>
    <path d="M1.33325 14C1.33325 8.02934 1.33325 5.04268 3.18792 3.18801C5.04259 1.33334 8.02792 1.33334 13.9999 1.33334C19.9706 1.33334 22.9573 1.33334 24.8119 3.18801C26.6666 5.04268 26.6666 8.02801 26.6666 14C26.6666 19.9707 26.6666 22.9573 24.8119 24.812C22.9573 26.6667 19.9719 26.6667 13.9999 26.6667C8.02925 26.6667 5.04259 26.6667 3.18792 24.812C1.33325 22.9573 1.33325 19.972 1.33325 14Z" stroke="#fff" stroke-width="1.5" stroke-linecap="round" stroke-linejoin="round"/>
</svg>