<svg width="60" height="60" viewBox="0 0 60 60" fill="none" xmlns="http://www.w3.org/2000/svg">
<g clip-path="url(#clip0_2319_4168)">
<path d="M9.25781 50.2344H18.2812V23.125H9.25781V50.2344ZM18.8672 14.7656C18.8411 13.4115 18.3724 12.2917 17.4609 11.4062C16.5495 10.5208 15.3385 10.0781 13.8281 10.0781C12.3177 10.0781 11.0872 10.5208 10.1367 11.4062C9.1862 12.2917 8.71094 13.4115 8.71094 14.7656C8.71094 16.0938 9.17318 17.207 10.0977 18.1055C11.0221 19.0039 12.2266 19.4531 13.7109 19.4531H13.75C15.2865 19.4531 16.5234 19.0039 17.4609 18.1055C18.3984 17.207 18.8672 16.0938 18.8672 14.7656ZM41.7188 50.2344H50.7422V34.6875C50.7422 30.6771 49.7917 27.6432 47.8906 25.5859C45.9896 23.5286 43.4766 22.5 40.3516 22.5C36.8099 22.5 34.0885 24.0234 32.1875 27.0703H32.2656V23.125H23.2422C23.3203 24.8438 23.3203 33.8802 23.2422 50.2344H32.2656V35.0781C32.2656 34.0885 32.3568 33.3594 32.5391 32.8906C32.9297 31.9792 33.5156 31.2044 34.2969 30.5664C35.0781 29.9284 36.0417 29.6094 37.1875 29.6094C40.2083 29.6094 41.7188 31.6536 41.7188 35.7422V50.2344ZM60 11.25V48.75C60 51.849 58.8997 54.4987 56.6992 56.6992C54.4987 58.8997 51.849 60 48.75 60H11.25C8.15104 60 5.5013 58.8997 3.30078 56.6992C1.10026 54.4987 0 51.849 0 48.75V11.25C0 8.15104 1.10026 5.5013 3.30078 3.30078C5.5013 1.10026 8.15104 0 11.25 0H48.75C51.849 0 54.4987 1.10026 56.6992 3.30078C58.8997 5.5013 60 8.15104 60 11.25Z" fill="white"/>
</g>
<defs>
<clipPath id="clip0_2319_4168">
<rect width="60" height="60" fill="white"/>
</clipPath>
</defs>
</svg>