<svg width="144" height="144" viewBox="0 0 144 144" fill="none" xmlns="http://www.w3.org/2000/svg">
<g clip-path="url(#clip0_2857_6053)">
<rect width="144" height="144" rx="72" fill="#A2A2A2"/>
<path d="M72.0003 8.66699C54.097 8.66699 39.542 23.222 39.542 41.1253C39.542 58.687 53.277 72.9003 71.1803 73.5153C71.727 73.447 72.2737 73.447 72.6837 73.5153C72.8203 73.5153 72.8887 73.5153 73.0253 73.5153C73.0937 73.5153 73.0937 73.5153 73.162 73.5153C90.6553 72.9003 104.39 58.687 104.459 41.1253C104.459 23.222 89.9037 8.66699 72.0003 8.66699Z" fill="white" fill-opacity="0.46"/>
<path d="M106.714 91.6917C87.6486 78.9817 56.5569 78.9817 37.3552 91.6917C28.6769 97.5 23.8936 105.358 23.8936 113.763C23.8936 122.168 28.6769 129.958 37.2869 135.698C46.8536 142.122 59.4269 145.333 72.0002 145.333C84.5736 145.333 97.1469 142.122 106.714 135.698C115.324 129.89 120.107 122.1 120.107 113.627C120.039 105.222 115.324 97.4317 106.714 91.6917Z" fill="white" fill-opacity="0.46"/>
</g>
<defs>
<clipPath id="clip0_2857_6053">
<rect width="144" height="144" rx="72" fill="white"/>
</clipPath>
</defs>
</svg>
