<svg width="24" height="24" viewBox="0 0 30 26" fill="none" xmlns="http://www.w3.org/2000/svg">
    <path d="M14.98 17.544L19.3026 22.4587C20.9026 24.2787 21.704 25.1893 22.5426 24.9667C23.38 24.7453 23.668 23.548 24.2426 21.152L27.4293 7.86134C28.316 4.17068 28.7586 2.32668 27.7746 1.41601C26.7906 0.505345 25.0853 1.18268 21.6746 2.53601L5.85331 8.82001C3.12531 9.90401 1.76131 10.4453 1.67465 11.376C1.66444 11.4708 1.66444 11.5665 1.67465 11.6613C1.75865 12.5933 3.11998 13.1387 5.84531 14.2307C7.07865 14.7253 7.69598 14.9733 8.13865 15.4467C8.18842 15.5 8.23642 15.5551 8.28265 15.612C8.69065 16.1187 8.86398 16.7853 9.21198 18.1133L9.86398 20.6027C10.2013 21.896 10.3706 22.544 10.8146 22.632C11.2586 22.72 11.644 22.184 12.416 21.1107L14.98 17.544ZM14.98 17.544L14.5573 17.104C14.0746 16.6 13.8333 16.3493 13.8333 16.0373C13.8333 15.7253 14.0733 15.4733 14.5573 14.9707L19.3213 10.0053" stroke="#fff" stroke-width="1.5" stroke-linecap="round" stroke-linejoin="round"/>
</svg>