<svg width="72" height="72" viewBox="0 0 72 72" fill="none" xmlns="http://www.w3.org/2000/svg">
<path d="M36 6C19.44 6 6 19.44 6 36C6 52.56 19.44 66 36 66C52.56 66 66 52.56 66 36C66 19.44 52.56 6 36 6ZM49.92 26.4C49.47 31.14 47.52 42.66 46.53 47.97C46.11 50.22 45.27 50.97 44.49 51.06C42.75 51.21 41.43 49.92 39.75 48.81C37.11 47.07 35.61 45.99 33.06 44.31C30.09 42.36 32.01 41.28 33.72 39.54C34.17 39.09 41.85 32.1 42 31.47C42.0208 31.3746 42.0181 31.2755 41.9919 31.1814C41.9658 31.0873 41.9171 31.001 41.85 30.93C41.67 30.78 41.43 30.84 41.22 30.87C40.95 30.93 36.75 33.72 28.56 39.24C27.36 40.05 26.28 40.47 25.32 40.44C24.24 40.41 22.2 39.84 20.67 39.33C18.78 38.73 17.31 38.4 17.43 37.35C17.49 36.81 18.24 36.27 19.65 35.7C28.41 31.89 34.23 29.37 37.14 28.17C45.48 24.69 47.19 24.09 48.33 24.09C48.57 24.09 49.14 24.15 49.5 24.45C49.8 24.69 49.89 25.02 49.92 25.26C49.89 25.44 49.95 25.98 49.92 26.4Z" fill="white"/>
</svg>
