<svg width="72" height="72" viewBox="0 0 72 72" fill="none" xmlns="http://www.w3.org/2000/svg">
    <path d="M65.9389 34.2301C64.9189 16.8301 49.1089 3.42013 30.8989 6.42013C18.3589 8.49013 8.30892 18.6601 6.35892 31.2001C5.21892 38.4601 6.71899 45.3301 9.98899 51.0001L7.31895 60.9301C6.71895 63.1801 8.78889 65.2201 11.0089 64.5901L20.7889 61.8901C25.2289 64.5001 30.4189 66.0001 35.9689 66.0001C52.8889 66.0001 66.9289 51.0901 65.9389 34.2301ZM50.639 47.1601C50.369 47.7001 50.0389 48.2101 49.6189 48.6901C48.8689 49.5001 48.0589 50.1001 47.1589 50.4601C46.2589 50.8501 45.2689 51.0301 44.2189 51.0301C42.6889 51.0301 41.0389 50.6701 39.3289 49.9201C37.5889 49.1701 35.879 48.1801 34.169 46.9501C32.429 45.6901 30.8089 44.2801 29.2489 42.7501C27.6889 41.1901 26.3089 39.54 25.0489 37.83C23.8189 36.12 22.8289 34.4101 22.1089 32.7001C21.3889 30.9901 21.029 29.3401 21.029 27.7801C21.029 26.7601 21.2089 25.7701 21.5689 24.8701C21.9289 23.9401 22.499 23.1001 23.309 22.3501C24.269 21.3901 25.3189 20.9401 26.4289 20.9401C26.8489 20.9401 27.2689 21.0301 27.6589 21.2101C28.0489 21.3901 28.4089 21.6601 28.6789 22.0501L32.1589 26.9701C32.4289 27.3601 32.6389 27.6901 32.7589 28.0201C32.9089 28.3501 32.9689 28.6501 32.9689 28.9501C32.9689 29.3101 32.849 29.6701 32.639 30.0301C32.429 30.3901 32.1589 30.7501 31.7989 31.1101L30.6589 32.3101C30.4789 32.4901 30.419 32.6701 30.419 32.9101C30.419 33.0301 30.4489 33.1501 30.4789 33.2701C30.5389 33.3901 30.569 33.4801 30.599 33.5701C30.869 34.0801 31.3489 34.71 32.0089 35.49C32.6989 36.27 33.419 37.0801 34.199 37.8601C35.009 38.6701 35.789 39.39 36.599 40.08C37.379 40.74 38.0389 41.1901 38.5489 41.4601C38.6389 41.4901 38.7289 41.55 38.8189 41.58C38.9389 41.64 39.059 41.6401 39.209 41.6401C39.479 41.6401 39.659 41.5501 39.839 41.3701L40.9789 40.2301C41.3689 39.8401 41.729 39.5701 42.059 39.3901C42.419 39.1801 42.749 39.0601 43.139 39.0601C43.439 39.0601 43.7389 39.1201 44.0689 39.2701C44.3989 39.4201 44.7589 39.6001 45.1189 39.8701L50.099 43.4101C50.489 43.6801 50.7589 44.0101 50.9389 44.3701C51.0889 44.7601 51.1789 45.1201 51.1789 45.5401C50.9989 46.0501 50.879 46.6201 50.639 47.1601Z" fill="white"/>
</svg>